<svg width="445" height="384" viewBox="0 0 445 384" fill="none" xmlns="http://www.w3.org/2000/svg">
<g clip-path="url(#clip0)">
<path d="M36.0579 288.779C36.6031 290.647 37.2261 292.749 37.8491 295.085C38.55 297.421 39.251 299.835 39.9519 302.404C40.7307 304.895 41.4316 307.465 42.2104 309.956C42.9892 312.448 43.7679 314.783 44.4688 316.963C45.0919 314.628 45.637 312.136 46.2601 309.333C46.8831 306.608 47.4282 303.727 48.0513 300.847C48.5964 297.888 49.1416 295.007 49.6867 292.127C50.2319 289.246 50.6992 286.443 51.1664 283.718H62.3031C60.6677 291.659 58.8764 299.757 56.7737 307.932C54.671 316.107 52.4125 323.893 49.9982 331.212H40.1855C38.6279 326.852 37.0704 322.258 35.5128 317.431C34.0331 312.603 32.5534 307.776 31.0737 302.949C29.594 307.776 28.1143 312.603 26.7125 317.431C25.2328 322.258 23.7531 326.852 22.1176 331.212H12.3049C9.89062 323.893 7.63213 316.107 5.5294 307.932C3.42667 299.757 1.63546 291.659 0 283.718H11.604C12.0712 286.443 12.5385 289.246 13.0837 292.127C13.6288 295.007 14.174 297.966 14.797 300.847C15.42 303.805 15.9652 306.608 16.5882 309.333C17.2112 312.058 17.8343 314.628 18.4573 316.963C19.314 314.706 20.0928 312.37 20.8715 309.8C21.6503 307.309 22.4291 304.74 23.13 302.248C23.8309 299.757 24.5319 297.343 25.1549 295.007C25.7779 292.672 26.3231 290.569 26.8682 288.779H36.0579Z" fill="#234879"/>
<path d="M118.298 307.465C118.298 311.513 117.675 315.095 116.507 318.209C115.339 321.324 113.625 323.893 111.523 325.917C109.42 328.019 106.928 329.577 104.046 330.589C101.165 331.601 98.0495 332.146 94.7007 332.146C91.4298 332.146 88.3925 331.601 85.511 330.589C82.6295 329.577 80.1374 327.942 77.9568 325.917C75.7762 323.815 74.1407 321.246 72.8946 318.209C71.6486 315.173 71.0255 311.591 71.0255 307.465C71.0255 303.416 71.6486 299.835 72.9725 296.72C74.2965 293.606 76.0098 291.037 78.1125 288.934C80.2931 286.832 82.7853 285.275 85.6668 284.185C88.5483 283.173 91.5077 282.628 94.7007 282.628C97.9716 282.628 101.009 283.173 103.89 284.185C106.772 285.275 109.264 286.832 111.445 288.934C113.625 291.037 115.261 293.606 116.507 296.72C117.753 299.835 118.298 303.338 118.298 307.465ZM82.0065 307.465C82.0065 309.8 82.318 311.903 82.8631 313.771C83.4083 315.64 84.265 317.275 85.3553 318.599C86.4456 319.922 87.7695 321.012 89.3271 321.713C90.8847 322.414 92.6759 322.803 94.7007 322.803C96.6477 322.803 98.4389 322.414 99.9965 321.713C101.554 321.012 102.878 319.922 103.968 318.599C105.059 317.275 105.837 315.64 106.46 313.771C107.006 311.903 107.317 309.8 107.317 307.465C107.317 305.129 107.006 303.027 106.46 301.158C105.915 299.29 105.059 297.655 103.968 296.331C102.878 295.007 101.554 293.917 99.9965 293.217C98.4389 292.516 96.6477 292.127 94.7007 292.127C92.6759 292.127 90.8847 292.516 89.3271 293.294C87.7695 294.073 86.4456 295.085 85.3553 296.409C84.265 297.732 83.4862 299.367 82.8631 301.236C82.318 303.027 82.0065 305.129 82.0065 307.465Z" fill="#234879"/>
<path d="M145.789 283.173C152.954 283.173 158.406 284.418 162.144 286.988C165.96 289.557 167.829 293.45 167.829 298.822C167.829 302.17 167.05 304.895 165.571 306.92C164.013 309.022 161.832 310.657 158.951 311.825C159.885 312.993 160.898 314.394 161.988 315.873C163.001 317.431 164.091 318.988 165.103 320.701C166.116 322.336 167.128 324.126 168.063 325.917C168.997 327.708 169.932 329.499 170.711 331.212H158.795C157.938 329.654 157.004 328.097 156.147 326.462C155.291 324.827 154.356 323.348 153.421 321.791C152.487 320.311 151.552 318.832 150.618 317.508C149.683 316.185 148.749 314.939 147.892 313.849H142.518V331.212H131.849V284.418C134.185 283.951 136.6 283.64 139.092 283.484C141.584 283.251 143.842 283.173 145.789 283.173ZM146.412 292.282C145.634 292.282 144.933 292.282 144.31 292.36C143.687 292.438 143.141 292.438 142.596 292.516V305.363H145.634C149.683 305.363 152.565 304.895 154.278 303.883C155.991 302.871 156.848 301.158 156.848 298.745C156.848 296.409 155.991 294.774 154.2 293.762C152.409 292.749 149.839 292.282 146.412 292.282Z" fill="#234879"/>
<path d="M223.824 307.465C223.824 311.591 223.201 315.173 221.877 318.209C220.631 321.246 218.762 323.815 216.425 325.839C214.089 327.864 211.208 329.343 207.859 330.355C204.51 331.367 200.694 331.835 196.488 331.835C194.541 331.835 192.361 331.757 189.791 331.601C187.221 331.445 184.729 331.134 182.237 330.589V284.341C184.729 283.873 187.299 283.562 189.947 283.406C192.594 283.251 194.931 283.173 196.8 283.173C200.85 283.173 204.588 283.64 207.859 284.574C211.208 285.508 214.011 286.91 216.425 288.856C218.762 290.803 220.631 293.372 221.877 296.409C223.201 299.445 223.824 303.105 223.824 307.465ZM192.906 322.491C193.373 322.569 193.996 322.569 194.619 322.569C195.242 322.569 196.099 322.569 196.956 322.569C202.329 322.569 206.301 321.246 208.871 318.521C211.441 315.796 212.765 312.136 212.765 307.387C212.765 302.404 211.519 298.667 209.027 296.097C206.535 293.528 202.641 292.282 197.345 292.282C196.644 292.282 195.865 292.282 195.087 292.282C194.308 292.282 193.607 292.36 192.906 292.438V322.491Z" fill="#234879"/>
<path d="M259.025 332.146C251.315 332.146 245.396 329.966 241.347 325.684C237.297 321.401 235.272 315.328 235.272 307.387C235.272 303.494 235.895 299.99 237.141 296.876C238.387 293.762 240.101 291.192 242.203 289.09C244.384 286.988 246.876 285.353 249.913 284.263C252.951 283.173 256.066 282.628 259.57 282.628C261.595 282.628 263.386 282.783 265.022 283.095C266.657 283.406 268.137 283.718 269.305 284.107C270.551 284.496 271.564 284.886 272.42 285.275C273.277 285.664 273.822 285.976 274.212 286.209L271.096 294.852C269.617 294.073 267.903 293.45 265.956 292.827C264.009 292.282 261.829 291.971 259.337 291.971C257.701 291.971 256.066 292.282 254.508 292.827C252.951 293.372 251.549 294.229 250.303 295.474C249.057 296.72 248.122 298.277 247.421 300.146C246.72 302.092 246.331 304.428 246.331 307.153C246.331 309.333 246.565 311.358 247.032 313.304C247.499 315.173 248.278 316.808 249.368 318.209C250.459 319.611 251.86 320.701 253.574 321.479C255.287 322.258 257.39 322.647 259.882 322.647C261.439 322.647 262.841 322.569 264.087 322.336C265.333 322.102 266.424 321.946 267.358 321.713C268.293 321.479 269.149 321.168 269.928 320.856C270.629 320.545 271.33 320.234 271.953 320L274.912 328.564C273.433 329.499 271.252 330.277 268.526 331.056C265.879 331.757 262.685 332.146 259.025 332.146Z" fill="#234879"/>
<path d="M320.238 331.212C319.693 329.577 319.148 327.864 318.525 326.151C317.902 324.438 317.279 322.647 316.733 320.934H298.198C297.575 322.647 297.03 324.438 296.407 326.151C295.784 327.864 295.239 329.577 294.694 331.212H283.557C285.348 326.073 287.062 321.401 288.619 317.041C290.255 312.681 291.812 308.633 293.292 304.74C294.849 300.925 296.329 297.265 297.809 293.839C299.289 290.414 300.846 286.988 302.482 283.718H312.606C314.163 286.988 315.721 290.414 317.201 293.839C318.68 297.265 320.238 300.925 321.796 304.74C323.353 308.555 324.911 312.681 326.546 317.041C328.182 321.401 329.817 326.073 331.608 331.212H320.238ZM307.388 294.462C307.154 295.163 306.765 296.097 306.376 297.265C305.908 298.433 305.363 299.835 304.818 301.392C304.195 302.949 303.572 304.662 302.871 306.53C302.17 308.399 301.391 310.345 300.69 312.448H314.241C313.54 310.423 312.839 308.399 312.139 306.53C311.438 304.662 310.815 302.949 310.192 301.392C309.569 299.835 309.023 298.433 308.556 297.265C308.089 296.097 307.7 295.163 307.388 294.462Z" fill="#234879"/>
<path d="M355.05 283.718C355.907 285.197 356.841 287.066 357.931 289.324C359.022 291.504 360.112 293.917 361.28 296.487C362.448 299.056 363.617 301.703 364.785 304.428C365.953 307.153 367.043 309.645 367.978 312.058C368.99 309.723 370.08 307.153 371.171 304.428C372.339 301.703 373.507 299.134 374.675 296.487C375.844 293.917 376.934 291.504 378.024 289.324C379.114 287.144 380.049 285.275 380.906 283.718H390.641C391.108 286.832 391.497 290.414 391.887 294.307C392.276 298.2 392.587 302.248 392.899 306.53C393.211 310.735 393.444 315.017 393.756 319.221C393.989 323.504 394.223 327.474 394.379 331.212H383.943C383.787 326.618 383.631 321.557 383.398 316.107C383.164 310.657 382.853 305.207 382.385 299.679C381.529 301.625 380.672 303.727 379.66 306.063C378.647 308.399 377.635 310.735 376.7 313.071C375.688 315.406 374.753 317.664 373.819 319.766C372.884 321.869 372.105 323.737 371.482 325.217H364.006C363.383 323.737 362.604 321.869 361.67 319.766C360.735 317.664 359.8 315.406 358.788 313.071C357.776 310.735 356.841 308.399 355.829 306.063C354.816 303.727 353.882 301.625 353.103 299.679C352.636 305.207 352.324 310.657 352.09 316.107C351.857 321.557 351.701 326.54 351.545 331.212H341.11C341.265 327.474 341.499 323.504 341.733 319.221C341.966 314.939 342.278 310.735 342.589 306.53C342.901 302.326 343.212 298.277 343.602 294.307C343.991 290.414 344.38 286.91 344.848 283.718H355.05Z" fill="#234879"/>
<path d="M422.882 283.173C429.969 283.173 435.421 284.418 439.159 286.91C442.975 289.401 444.844 293.45 444.844 299.134C444.844 304.817 442.897 308.944 439.081 311.513C435.265 314.083 429.736 315.328 422.649 315.328H419.3V331.212H408.631V284.418C410.967 283.951 413.459 283.64 416.029 283.484C418.599 283.251 420.858 283.173 422.882 283.173ZM423.505 292.282C422.727 292.282 421.948 292.282 421.247 292.36C420.468 292.438 419.845 292.438 419.3 292.516V306.219H422.649C426.387 306.219 429.113 305.752 430.982 304.74C432.851 303.727 433.785 301.859 433.785 299.134C433.785 297.81 433.552 296.72 433.084 295.864C432.617 295.007 431.916 294.307 431.06 293.762C430.203 293.217 429.113 292.905 427.789 292.671C426.465 292.36 425.063 292.282 423.505 292.282Z" fill="#234879"/>
<path d="M23.4416 365.938H28.3479V382.366C27.9585 382.522 27.3355 382.678 26.6346 382.834C25.8558 382.989 24.9991 383.145 23.9867 383.301C22.9743 383.456 21.884 383.612 20.7158 383.768C19.5476 383.924 18.3016 383.924 17.1334 383.924C14.6412 383.924 12.4606 383.534 10.4358 382.678C8.41094 381.899 6.6976 380.653 5.2179 379.174C3.7382 377.617 2.6479 375.748 1.86911 373.49C1.09032 371.233 0.700928 368.663 0.700928 365.705C0.700928 362.746 1.1682 360.177 2.02487 357.919C2.88154 355.661 4.1276 353.714 5.6073 352.157C7.087 350.6 8.87821 349.432 10.9809 348.576C13.0058 347.797 15.1864 347.33 17.5228 347.33C19.0803 347.33 20.4822 347.408 21.7282 347.641C22.9743 347.875 23.9867 348.108 24.9213 348.342C25.7779 348.576 26.4788 348.887 27.1019 349.121C27.647 349.354 28.0364 349.588 28.2701 349.743L26.7125 353.87C25.7001 353.247 24.454 352.702 22.8185 352.313C21.1831 351.924 19.5476 351.69 17.8343 351.69C16.0431 351.69 14.4076 352.001 12.9279 352.624C11.4482 353.247 10.2022 354.181 9.18973 355.427C8.1773 356.673 7.32063 358.152 6.77548 359.865C6.23033 361.578 5.91881 363.525 5.91881 365.705C5.91881 367.807 6.15245 369.675 6.61972 371.388C7.087 373.101 7.86579 374.58 8.87821 375.826C9.89064 377.072 11.1367 378.006 12.5385 378.707C13.9403 379.408 15.7316 379.719 17.7564 379.719C19.1582 379.719 20.4043 379.641 21.3388 379.486C22.3513 379.33 23.0522 379.174 23.5194 379.018V365.938H23.4416Z" fill="#234879"/>
<path d="M60.9013 368.506C61.4464 369.207 62.1474 370.063 62.9262 371.153C63.7828 372.243 64.6395 373.489 65.4962 374.813C66.3528 376.136 67.2095 377.538 68.0662 379.017C68.9228 380.496 69.6237 381.898 70.2468 383.221H64.8731C64.1722 381.976 63.4713 380.652 62.6925 379.329C61.9137 378.005 61.1349 376.759 60.2783 375.591C59.4995 374.423 58.6428 373.256 57.864 372.243C57.0852 371.231 56.3843 370.297 55.6834 369.518C55.2161 369.518 54.8267 369.596 54.3595 369.596C53.8922 369.596 53.4249 369.596 52.9577 369.596H48.5186V383.299H43.6122V348.73C45.014 348.418 46.5716 348.185 48.207 348.029C49.9204 347.873 51.478 347.873 52.8798 347.873C57.7861 347.873 61.5243 348.808 64.1722 350.676C66.7422 352.545 68.0662 355.27 68.0662 359.007C68.0662 361.343 67.4431 363.29 66.1971 365.002C64.951 366.715 63.3155 367.728 60.9013 368.506ZM53.5028 352.078C51.4001 352.078 49.8425 352.156 48.6743 352.234V365.47H52.1789C53.8922 365.47 55.3719 365.392 56.7737 365.236C58.0977 365.08 59.2658 364.769 60.2004 364.302C61.1349 363.835 61.8358 363.134 62.381 362.277C62.9261 361.421 63.1598 360.253 63.1598 358.852C63.1598 357.528 62.9261 356.438 62.381 355.582C61.9137 354.725 61.2128 354.024 60.3561 353.479C59.4995 352.934 58.4871 352.623 57.3189 352.389C56.1507 352.156 54.8267 352.078 53.5028 352.078Z" fill="#234879"/>
<path d="M108.174 383.221C107.629 381.664 107.084 380.185 106.538 378.706C106.071 377.226 105.526 375.747 104.981 374.19H89.0935L85.9004 383.144H80.7604C82.0844 379.406 83.4083 375.981 84.5765 372.866C85.7447 369.674 86.9129 366.715 88.0811 363.912C89.2492 361.109 90.3395 358.384 91.4298 355.815C92.5202 353.246 93.6883 350.676 94.9344 348.185H99.4514C100.697 350.754 101.866 353.246 102.956 355.815C104.046 358.384 105.214 361.109 106.305 363.912C107.473 366.715 108.563 369.752 109.809 372.866C110.977 376.058 112.224 379.484 113.625 383.144H108.174V383.221ZM103.579 370.219C102.489 367.26 101.398 364.457 100.386 361.654C99.2956 358.929 98.2053 356.282 97.0371 353.713C95.8689 356.282 94.7008 358.852 93.6883 361.654C92.598 364.38 91.5856 367.26 90.4953 370.219H103.579Z" fill="#234879"/>
<path d="M149.995 383.221C149.216 381.976 148.437 380.574 147.425 379.017C146.412 377.46 145.4 375.825 144.31 374.19C143.219 372.555 142.051 370.842 140.805 369.129C139.559 367.416 138.391 365.781 137.223 364.146C136.054 362.511 134.886 361.032 133.796 359.63C132.706 358.229 131.615 356.983 130.681 355.893V383.299H125.852V348.263H129.746C131.304 349.976 133.017 351.922 134.808 354.18C136.6 356.438 138.391 358.774 140.182 361.109C141.973 363.523 143.609 365.859 145.166 368.117C146.724 370.375 148.048 372.477 149.138 374.268V348.341H153.967V383.377H149.995V383.221Z" fill="#234879"/>
<path d="M193.996 383.221C193.451 381.664 192.906 380.185 192.361 378.706C191.894 377.226 191.348 375.747 190.803 374.19H174.916L171.723 383.144H166.583C167.907 379.406 169.231 375.981 170.399 372.866C171.567 369.674 172.735 366.715 173.904 363.912C175.072 361.109 176.162 358.384 177.252 355.815C178.343 353.246 179.511 350.676 180.757 348.185H185.274C186.52 350.754 187.688 353.246 188.778 355.815C189.869 358.384 191.037 361.109 192.127 363.912C193.295 366.715 194.386 369.752 195.632 372.866C196.8 376.058 198.046 379.484 199.448 383.144H193.996V383.221ZM189.324 370.219C188.233 367.26 187.143 364.457 186.131 361.654C185.04 358.929 183.95 356.282 182.782 353.713C181.614 356.282 180.445 358.852 179.433 361.654C178.343 364.38 177.33 367.26 176.24 370.219H189.324Z" fill="#234879"/>
<path d="M240.568 365.625C240.568 368.662 240.101 371.309 239.166 373.567C238.232 375.825 236.908 377.693 235.194 379.173C233.481 380.652 231.378 381.742 229.042 382.443C226.628 383.144 223.98 383.533 221.176 383.533C219.774 383.533 218.217 383.455 216.503 383.377C214.79 383.221 213.232 383.066 211.908 382.676V348.652C213.31 348.341 214.868 348.107 216.503 347.951C218.217 347.796 219.774 347.796 221.176 347.796C224.058 347.796 226.705 348.185 229.042 348.886C231.456 349.586 233.481 350.676 235.194 352.156C236.908 353.635 238.232 355.504 239.166 357.762C240.101 360.019 240.568 362.589 240.568 365.625ZM221.488 379.251C226.16 379.251 229.587 378.083 231.923 375.669C234.182 373.255 235.35 369.985 235.35 365.703C235.35 361.421 234.182 358.073 231.923 355.737C229.665 353.324 226.16 352.156 221.488 352.156C220.086 352.156 218.995 352.156 218.295 352.234C217.516 352.234 216.971 352.311 216.737 352.311V379.173C217.048 379.173 217.594 379.251 218.295 379.251C219.073 379.173 220.086 379.251 221.488 379.251Z" fill="#234879"/>
<path d="M278.028 383.221C277.482 381.664 276.937 380.185 276.392 378.706C275.847 377.226 275.38 375.747 274.835 374.19H258.947L255.754 383.144H250.614C251.938 379.406 253.262 375.981 254.43 372.866C255.599 369.674 256.767 366.715 257.935 363.912C259.103 361.109 260.193 358.384 261.284 355.815C262.374 353.246 263.542 350.676 264.788 348.185H269.305C270.551 350.754 271.719 353.246 272.81 355.815C273.9 358.384 275.068 361.109 276.159 363.912C277.327 366.715 278.417 369.752 279.663 372.866C280.831 376.058 282.077 379.484 283.479 383.144H278.028V383.221ZM273.433 370.219C272.342 367.26 271.252 364.457 270.24 361.654C269.149 358.929 268.059 356.282 266.891 353.713C265.723 356.282 264.555 358.852 263.542 361.654C262.452 364.38 261.439 367.26 260.349 370.219H273.433Z" fill="#234879"/>
<path d="M334.568 357.139C334.568 358.384 334.334 359.552 333.867 360.642C333.4 361.81 332.699 362.9 331.92 363.99C331.141 365.08 330.207 366.17 329.194 367.26C328.182 368.35 327.169 369.363 326.157 370.375C325.612 370.92 324.911 371.62 324.132 372.399C323.353 373.178 322.652 373.956 321.951 374.813C321.25 375.669 320.705 376.448 320.238 377.226C319.771 378.005 319.537 378.706 319.537 379.251H335.658V383.221H314.397C314.397 382.988 314.319 382.832 314.319 382.599C314.319 382.365 314.319 382.209 314.319 382.054C314.319 380.496 314.553 379.017 315.098 377.616C315.643 376.214 316.266 374.968 317.123 373.723C317.98 372.477 318.914 371.387 319.926 370.297C320.939 369.207 322.029 368.195 323.042 367.182C323.898 366.404 324.677 365.547 325.456 364.769C326.235 363.99 326.858 363.212 327.481 362.355C328.104 361.577 328.571 360.72 328.883 359.864C329.272 359.007 329.428 358.151 329.428 357.217C329.428 356.204 329.272 355.348 328.96 354.647C328.649 353.946 328.182 353.324 327.636 352.856C327.091 352.389 326.468 352 325.767 351.844C325.066 351.611 324.288 351.533 323.431 351.533C322.419 351.533 321.562 351.689 320.783 351.922C320.004 352.156 319.226 352.467 318.603 352.856C317.98 353.246 317.434 353.557 316.967 353.946C316.5 354.336 316.188 354.647 315.955 354.803L313.618 351.455C313.93 351.144 314.397 350.676 315.02 350.209C315.643 349.742 316.344 349.275 317.201 348.808C318.057 348.341 318.992 348.029 320.004 347.718C321.017 347.406 322.185 347.251 323.431 347.251C327.091 347.251 329.895 348.107 331.686 349.82C333.633 351.611 334.568 354.024 334.568 357.139Z" fill="#234879"/>
<path d="M349.676 365.625C349.676 359.786 350.689 355.27 352.791 352.078C354.894 348.886 357.776 347.328 361.436 347.328C365.096 347.328 367.978 348.886 370.081 352.078C372.183 355.27 373.196 359.786 373.196 365.625C373.196 371.465 372.183 375.981 370.081 379.173C367.978 382.365 365.096 383.922 361.436 383.922C357.776 383.922 354.894 382.365 352.791 379.173C350.689 375.981 349.676 371.543 349.676 365.625ZM368.211 365.625C368.211 363.679 368.134 361.888 367.9 360.175C367.666 358.462 367.277 356.983 366.81 355.659C366.264 354.414 365.564 353.324 364.707 352.623C363.85 351.844 362.76 351.455 361.436 351.455C360.19 351.455 359.1 351.844 358.165 352.623C357.308 353.401 356.607 354.414 356.062 355.659C355.517 356.905 355.206 358.462 354.972 360.175C354.738 361.888 354.66 363.679 354.66 365.625C354.66 367.572 354.738 369.363 354.972 371.075C355.206 372.788 355.595 374.268 356.062 375.591C356.607 376.837 357.308 377.927 358.165 378.628C359.022 379.406 360.112 379.796 361.436 379.796C362.682 379.796 363.772 379.406 364.707 378.628C365.564 377.849 366.264 376.837 366.81 375.591C367.355 374.345 367.666 372.788 367.9 371.075C368.056 369.44 368.211 367.572 368.211 365.625Z" fill="#234879"/>
<path d="M388.07 355.348C390.017 354.569 391.887 353.635 393.678 352.467C395.469 351.299 397.182 349.82 398.662 348.107H402.011V383.144H397.338V354.569C396.949 354.959 396.404 355.348 395.858 355.737C395.235 356.127 394.612 356.516 393.911 356.905C393.211 357.294 392.51 357.606 391.731 357.995C390.952 358.307 390.251 358.618 389.55 358.852L388.07 355.348Z" fill="#234879"/>
<path d="M445 362.2C445 369.129 443.287 374.423 439.782 377.927C436.355 381.509 431.215 383.299 424.362 383.299L424.206 379.329C426.309 379.329 428.256 379.095 429.969 378.706C431.683 378.316 433.162 377.616 434.486 376.759C435.732 375.903 436.823 374.735 437.679 373.256C438.536 371.854 439.159 370.063 439.548 368.039C438.692 368.428 437.679 368.74 436.589 369.051C435.499 369.285 434.331 369.44 433.162 369.44C431.138 369.44 429.502 369.129 428.1 368.584C426.698 367.961 425.608 367.182 424.674 366.17C423.817 365.158 423.194 363.99 422.805 362.745C422.415 361.421 422.259 360.097 422.259 358.696C422.259 357.45 422.493 356.127 422.882 354.803C423.35 353.479 423.973 352.234 424.907 351.144C425.764 350.054 426.932 349.119 428.334 348.418C429.736 347.718 431.371 347.328 433.24 347.328C435.187 347.328 436.823 347.64 438.302 348.341C439.782 349.041 441.028 349.976 441.963 351.299C442.975 352.545 443.676 354.18 444.221 355.971C444.766 357.839 445 359.864 445 362.2ZM433.63 365.625C434.798 365.625 435.888 365.547 436.978 365.314C437.991 365.08 439.003 364.769 440.016 364.302C440.016 363.912 440.094 363.601 440.094 363.212C440.094 362.822 440.094 362.511 440.094 362.122C440.094 360.642 440.016 359.241 439.782 357.917C439.548 356.594 439.237 355.426 438.692 354.414C438.147 353.401 437.446 352.623 436.589 352C435.732 351.377 434.564 351.144 433.24 351.144C432.15 351.144 431.215 351.377 430.437 351.844C429.658 352.311 429.035 352.934 428.49 353.635C427.945 354.336 427.633 355.192 427.399 356.049C427.166 356.905 427.088 357.762 427.088 358.54C427.088 360.798 427.633 362.589 428.723 363.757C429.814 365.08 431.449 365.625 433.63 365.625Z" fill="#234879"/>
<path d="M204.899 149.8L188.233 166.462L171.567 149.8L154.979 166.462L138.313 149.8L127.176 160.934C127.176 160.934 133.796 169.109 139.715 174.793C145.478 180.321 154.979 188.652 154.979 188.652L171.645 171.99L188.311 188.652C188.311 188.652 197.812 180.321 203.575 174.793C209.416 169.109 216.114 160.934 216.114 160.934L204.899 149.8Z" fill="#234879"/>
<path d="M254.82 199.786L238.232 216.448L221.565 199.786L204.899 216.448L188.233 199.786L177.097 210.92C177.097 210.92 183.716 219.095 189.635 224.779C195.398 230.307 204.899 238.637 204.899 238.637L221.565 221.976L238.232 238.637C238.232 238.637 247.733 230.307 253.496 224.779C259.337 219.095 266.034 210.92 266.034 210.92L254.82 199.786Z" fill="#234879"/>
<path d="M304.974 149.8L288.308 166.462L271.642 149.8L254.976 166.462L238.309 149.8L227.173 160.934C227.173 160.934 233.792 169.109 239.711 174.793C245.474 180.321 254.976 188.652 254.976 188.652L271.642 171.99L288.308 188.652C288.308 188.652 297.809 180.321 303.572 174.793C309.413 169.109 316.11 160.934 316.11 160.934L304.974 149.8Z" fill="#234879"/>
<path d="M154.901 99.8151L138.235 116.477L121.569 99.8151L104.903 116.477L88.2368 99.8151L77.1001 110.949C77.1001 110.949 83.7198 119.124 89.6386 124.808C95.4016 130.336 104.903 138.667 104.903 138.667L121.569 122.005L138.235 138.667C138.235 138.667 147.736 130.336 153.499 124.808C159.34 119.124 166.038 110.949 166.038 110.949L154.901 99.8151Z" fill="#234879"/>
<path d="M254.898 99.8151L238.309 116.477L221.643 99.8151L204.977 116.477L188.311 99.8151L177.174 110.949C177.174 110.949 183.794 119.124 189.713 124.808C195.476 130.336 204.977 138.667 204.977 138.667L221.643 122.005L238.309 138.667C238.309 138.667 247.811 130.336 253.574 124.808C259.415 119.124 266.112 110.949 266.112 110.949L254.898 99.8151Z" fill="#234879"/>
<path d="M354.894 99.6594L338.228 116.321L321.64 99.6594L304.974 116.321L288.308 99.6594L277.171 110.793C277.171 110.793 283.791 118.968 289.709 124.652C295.473 130.18 304.974 138.511 304.974 138.511L321.64 121.849L338.306 138.511C338.306 138.511 347.807 130.18 353.57 124.652C359.411 118.968 366.109 110.793 366.109 110.793L354.894 99.6594Z" fill="#234879"/>
<path d="M204.822 49.9075L188.155 66.5693L171.489 49.9075L154.823 66.5693L138.157 49.9075L127.021 61.0414C127.021 61.0414 133.64 69.2165 139.559 74.9002C145.322 80.4282 154.823 88.7591 154.823 88.7591L171.489 72.0973L188.155 88.7591C188.155 88.7591 197.657 80.4282 203.42 74.9002C209.261 69.2165 215.958 61.0414 215.958 61.0414L204.822 49.9075Z" fill="#234879"/>
<path d="M304.896 49.9075L288.23 66.5693L271.564 49.9075L254.898 66.5693L238.309 49.9075L227.173 61.0414C227.173 61.0414 233.792 69.2165 239.711 74.9002C245.474 80.4282 254.976 88.7591 254.976 88.7591L271.642 72.0973L288.308 88.7591C288.308 88.7591 297.809 80.4282 303.572 74.9002C309.413 69.2165 316.11 61.0414 316.11 61.0414L304.896 49.9075Z" fill="#234879"/>
<path d="M254.898 0L238.309 16.6618L221.643 0L204.977 16.6618L188.311 0L177.174 11.1338C177.174 11.1338 183.794 19.309 189.713 24.9927C195.476 30.5207 204.977 38.8516 204.977 38.8516L221.643 22.1898L238.309 38.8516C238.309 38.8516 247.811 30.5207 253.574 24.9927C259.415 19.309 266.112 11.1338 266.112 11.1338L254.898 0Z" fill="#234879"/>
</g>
<defs>
<clipPath id="clip0">
<rect width="445" height="384" fill="white"/>
</clipPath>
</defs>
</svg>
