<svg width="436" height="376" viewBox="0 0 436 376" fill="none" xmlns="http://www.w3.org/2000/svg">
<path d="M35.2552 282.422C35.7883 284.25 36.3974 286.306 37.0066 288.59C37.6919 290.874 38.3772 293.235 39.0625 295.748C39.824 298.184 40.5093 300.697 41.2707 303.134C42.0322 305.57 42.7936 307.855 43.4789 309.987C44.0881 307.702 44.6211 305.266 45.2303 302.525C45.8394 299.859 46.3724 297.042 46.9816 294.225C47.5146 291.331 48.0476 288.514 48.5806 285.696C49.1137 282.879 49.5705 280.138 50.0274 277.473H60.9162C59.3171 285.24 57.5658 293.159 55.5098 301.154C53.4539 309.149 51.2457 316.764 48.8852 323.921H39.2909C37.768 319.657 36.2451 315.165 34.7222 310.444C33.2755 305.723 31.8287 301.002 30.382 296.281C28.9352 301.002 27.4884 305.723 26.1178 310.444C24.6711 315.165 23.2243 319.657 21.6253 323.921H12.031C9.67049 316.764 7.46228 309.149 5.40636 301.154C3.35045 293.159 1.59911 285.24 6.10352e-05 277.473H11.3457C11.8026 280.138 12.2594 282.879 12.7924 285.696C13.3255 288.514 13.8585 291.407 14.4676 294.225C15.0768 297.118 15.6098 299.859 16.219 302.525C16.8281 305.19 17.4373 307.702 18.0465 309.987C18.8841 307.779 19.6455 305.494 20.4069 302.981C21.1684 300.545 21.9299 298.032 22.6152 295.595C23.3005 293.159 23.9858 290.798 24.5949 288.514C25.2041 286.229 25.7371 284.174 26.2701 282.422H35.2552Z" fill="white"/>
<path d="M115.664 300.697C115.664 304.657 115.055 308.159 113.913 311.205C112.771 314.251 111.096 316.764 109.04 318.743C106.984 320.799 104.547 322.322 101.73 323.312C98.9125 324.302 95.8667 324.835 92.5925 324.835C89.3944 324.835 86.4247 324.302 83.6073 323.312C80.79 322.322 78.3533 320.723 76.2213 318.743C74.0892 316.688 72.4901 314.175 71.2718 311.205C70.0535 308.235 69.4443 304.733 69.4443 300.697C69.4443 296.737 70.0535 293.235 71.348 290.189C72.6424 287.143 74.3176 284.63 76.3735 282.575C78.5056 280.519 80.9423 278.996 83.7596 277.93C86.577 276.94 89.4705 276.407 92.5925 276.407C95.7905 276.407 98.7602 276.94 101.578 277.93C104.395 278.996 106.832 280.519 108.964 282.575C111.096 284.63 112.695 287.143 113.913 290.189C115.131 293.235 115.664 296.661 115.664 300.697ZM80.1808 300.697C80.1808 302.981 80.4854 305.037 81.0184 306.865C81.5514 308.692 82.389 310.291 83.455 311.586C84.5211 312.88 85.8155 313.946 87.3384 314.632C88.8613 315.317 90.6127 315.698 92.5925 315.698C94.4961 315.698 96.2474 315.317 97.7703 314.632C99.2932 313.946 100.588 312.88 101.654 311.586C102.72 310.291 103.481 308.692 104.09 306.865C104.623 305.037 104.928 302.981 104.928 300.697C104.928 298.413 104.623 296.357 104.09 294.529C103.557 292.702 102.72 291.103 101.654 289.808C100.588 288.514 99.2932 287.448 97.7703 286.762C96.2474 286.077 94.4961 285.696 92.5925 285.696C90.6127 285.696 88.8613 286.077 87.3384 286.839C85.8155 287.6 84.5211 288.59 83.455 289.884C82.389 291.179 81.6276 292.778 81.0184 294.605C80.4854 296.357 80.1808 298.413 80.1808 300.697Z" fill="white"/>
<path d="M142.544 276.94C149.549 276.94 154.879 278.158 158.534 280.671C162.265 283.184 164.093 286.991 164.093 292.245C164.093 295.519 163.331 298.184 161.885 300.164C160.362 302.22 158.23 303.819 155.412 304.961C156.326 306.103 157.316 307.474 158.382 308.921C159.372 310.444 160.438 311.966 161.428 313.642C162.418 315.241 163.407 316.992 164.321 318.743C165.235 320.495 166.149 322.246 166.91 323.921H155.26C154.422 322.398 153.509 320.875 152.671 319.276C151.833 317.677 150.92 316.231 150.006 314.708C149.092 313.261 148.178 311.814 147.265 310.52C146.351 309.225 145.437 308.007 144.6 306.941H139.346V323.921H128.914V278.158C131.198 277.701 133.559 277.397 135.995 277.244C138.432 277.016 140.64 276.94 142.544 276.94ZM143.153 285.849C142.391 285.849 141.706 285.849 141.097 285.925C140.488 286.001 139.955 286.001 139.422 286.077V298.641H142.391C146.351 298.641 149.168 298.184 150.843 297.194C152.519 296.204 153.356 294.529 153.356 292.169C153.356 289.884 152.519 288.285 150.767 287.295C149.016 286.306 146.503 285.849 143.153 285.849Z" fill="white"/>
<path d="M218.841 300.697C218.841 304.733 218.232 308.235 216.937 311.205C215.719 314.175 213.892 316.687 211.607 318.667C209.323 320.647 206.505 322.094 203.231 323.084C199.957 324.074 196.226 324.53 192.114 324.53C190.21 324.53 188.078 324.454 185.566 324.302C183.053 324.15 180.616 323.845 178.18 323.312V278.082C180.616 277.625 183.129 277.32 185.718 277.168C188.307 277.016 190.591 276.94 192.419 276.94C196.378 276.94 200.033 277.397 203.231 278.31C206.505 279.224 209.247 280.595 211.607 282.498C213.892 284.402 215.719 286.915 216.937 289.884C218.232 292.854 218.841 296.433 218.841 300.697ZM188.611 315.393C189.068 315.469 189.677 315.469 190.287 315.469C190.896 315.469 191.733 315.469 192.571 315.469C197.825 315.469 201.708 314.175 204.221 311.51C206.734 308.845 208.028 305.266 208.028 300.621C208.028 295.748 206.81 292.093 204.373 289.58C201.937 287.067 198.13 285.849 192.952 285.849C192.266 285.849 191.505 285.849 190.743 285.849C189.982 285.849 189.297 285.925 188.611 286.001V315.393Z" fill="white"/>
<path d="M253.259 324.835C245.72 324.835 239.933 322.703 235.974 318.515C232.014 314.327 230.034 308.388 230.034 300.621C230.034 296.814 230.644 293.387 231.862 290.341C233.08 287.295 234.755 284.783 236.811 282.727C238.943 280.671 241.38 279.072 244.35 278.006C247.319 276.94 250.365 276.407 253.792 276.407C255.772 276.407 257.523 276.559 259.122 276.864C260.721 277.168 262.168 277.473 263.31 277.854C264.528 278.234 265.518 278.615 266.356 278.996C267.193 279.376 267.726 279.681 268.107 279.909L265.061 288.362C263.614 287.6 261.939 286.991 260.036 286.382C258.132 285.849 256 285.544 253.563 285.544C251.964 285.544 250.365 285.849 248.842 286.382C247.319 286.915 245.949 287.752 244.73 288.971C243.512 290.189 242.598 291.712 241.913 293.539C241.228 295.443 240.847 297.727 240.847 300.392C240.847 302.525 241.076 304.504 241.532 306.408C241.989 308.235 242.751 309.834 243.817 311.205C244.883 312.576 246.253 313.642 247.929 314.403C249.604 315.165 251.66 315.545 254.096 315.545C255.619 315.545 256.99 315.469 258.208 315.241C259.426 315.012 260.493 314.86 261.406 314.632C262.32 314.403 263.158 314.099 263.919 313.794C264.604 313.489 265.29 313.185 265.899 312.956L268.792 321.332C267.346 322.246 265.214 323.008 262.548 323.769C259.959 324.454 256.838 324.835 253.259 324.835Z" fill="white"/>
<path d="M313.109 323.921C312.576 322.322 312.043 320.647 311.433 318.972C310.824 317.297 310.215 315.545 309.682 313.87H291.56C290.95 315.545 290.417 317.297 289.808 318.972C289.199 320.647 288.666 322.322 288.133 323.921H277.244C278.996 318.896 280.671 314.327 282.194 310.063C283.793 305.799 285.316 301.839 286.762 298.032C288.285 294.301 289.732 290.722 291.179 287.372C292.626 284.021 294.148 280.671 295.748 277.473H305.646C307.169 280.671 308.692 284.021 310.139 287.372C311.586 290.722 313.109 294.301 314.632 298.032C316.154 301.763 317.677 305.799 319.276 310.063C320.875 314.327 322.474 318.896 324.226 323.921H313.109ZM300.545 287.981C300.316 288.666 299.935 289.58 299.555 290.722C299.098 291.864 298.565 293.235 298.032 294.758C297.423 296.281 296.814 297.956 296.128 299.783C295.443 301.611 294.681 303.514 293.996 305.57H307.245C306.56 303.591 305.875 301.611 305.19 299.783C304.504 297.956 303.895 296.281 303.286 294.758C302.677 293.235 302.144 291.864 301.687 290.722C301.23 289.58 300.849 288.666 300.545 287.981Z" fill="white"/>
<path d="M347.146 277.473C347.983 278.92 348.897 280.747 349.963 282.955C351.029 285.087 352.095 287.448 353.237 289.961C354.379 292.473 355.522 295.062 356.664 297.727C357.806 300.392 358.872 302.829 359.786 305.19C360.776 302.905 361.842 300.392 362.908 297.727C364.05 295.062 365.192 292.55 366.334 289.961C367.476 287.448 368.542 285.087 369.608 282.955C370.675 280.823 371.588 278.996 372.426 277.473H381.944C382.401 280.519 382.782 284.021 383.162 287.829C383.543 291.636 383.848 295.595 384.152 299.783C384.457 303.895 384.685 308.083 384.99 312.195C385.218 316.383 385.447 320.266 385.599 323.921H375.396C375.243 319.429 375.091 314.479 374.863 309.149C374.634 303.819 374.329 298.489 373.873 293.083C373.035 294.986 372.197 297.042 371.208 299.326C370.218 301.611 369.228 303.895 368.314 306.18C367.324 308.464 366.41 310.672 365.497 312.728C364.583 314.784 363.821 316.611 363.212 318.058H355.902C355.293 316.611 354.532 314.784 353.618 312.728C352.704 310.672 351.791 308.464 350.801 306.18C349.811 303.895 348.897 301.611 347.907 299.326C346.917 297.042 346.004 294.986 345.242 293.083C344.785 298.489 344.481 303.819 344.252 309.149C344.024 314.479 343.871 319.353 343.719 323.921H333.516C333.668 320.266 333.896 316.383 334.125 312.195C334.353 308.007 334.658 303.895 334.962 299.783C335.267 295.672 335.572 291.712 335.952 287.829C336.333 284.021 336.714 280.595 337.171 277.473H347.146Z" fill="white"/>
<path d="M413.468 276.94C420.397 276.94 425.727 278.158 429.382 280.595C433.113 283.031 434.941 286.991 434.941 292.55C434.941 298.108 433.037 302.144 429.306 304.657C425.575 307.169 420.169 308.388 413.239 308.388H409.965V323.921H399.533V278.158C401.818 277.701 404.254 277.397 406.767 277.244C409.28 277.016 411.488 276.94 413.468 276.94ZM414.077 285.849C413.316 285.849 412.554 285.849 411.869 285.925C411.107 286.001 410.498 286.001 409.965 286.077V299.479H413.239C416.894 299.479 419.559 299.022 421.387 298.032C423.214 297.042 424.128 295.215 424.128 292.55C424.128 291.255 423.9 290.189 423.443 289.351C422.986 288.514 422.301 287.828 421.463 287.295C420.625 286.762 419.559 286.458 418.265 286.229C416.97 285.925 415.6 285.849 414.077 285.849Z" fill="white"/>
<path d="M22.9197 357.883H27.7169V373.95C27.3362 374.102 26.727 374.254 26.0417 374.407C25.2802 374.559 24.4426 374.711 23.4528 374.864C22.4629 375.016 21.3968 375.168 20.2547 375.32C19.1125 375.473 17.8942 375.473 16.752 375.473C14.3153 375.473 12.1833 375.092 10.2035 374.254C8.22373 373.493 6.54854 372.275 5.10178 370.828C3.65502 369.305 2.58899 367.477 1.82754 365.269C1.06609 363.061 0.685364 360.548 0.685364 357.655C0.685364 354.761 1.14223 352.248 1.97983 350.04C2.81743 347.832 4.03575 345.928 5.48251 344.405C6.92926 342.883 8.6806 341.74 10.7365 340.903C12.7163 340.141 14.8484 339.684 17.1327 339.684C18.6556 339.684 20.0262 339.761 21.2445 339.989C22.4629 340.217 23.4528 340.446 24.3665 340.674C25.2041 340.903 25.8894 341.207 26.4986 341.436C27.0316 341.664 27.4123 341.893 27.6407 342.045L26.1178 346.081C25.1279 345.472 23.9096 344.938 22.3106 344.558C20.7115 344.177 19.1125 343.949 17.4373 343.949C15.686 343.949 14.0869 344.253 12.6401 344.862C11.1934 345.471 9.97507 346.385 8.98518 347.604C7.9953 348.822 7.1577 350.269 6.62468 351.944C6.09167 353.619 5.78709 355.523 5.78709 357.655C5.78709 359.711 6.01552 361.538 6.47239 363.213C6.92926 364.889 7.69071 366.335 8.6806 367.554C9.67049 368.772 10.8888 369.686 12.2594 370.371C13.63 371.056 15.3814 371.361 17.3611 371.361C18.7318 371.361 19.9501 371.285 20.8638 371.132C21.8537 370.98 22.539 370.828 22.9959 370.676V357.883H22.9197Z" fill="white"/>
<path d="M59.5454 360.395C60.0785 361.08 60.7638 361.918 61.5252 362.984C62.3628 364.05 63.2004 365.268 64.038 366.563C64.8756 367.857 65.7132 369.228 66.5508 370.674C67.3884 372.121 68.0737 373.492 68.6829 374.786H63.4289C62.7435 373.568 62.0582 372.273 61.2968 370.979C60.5353 369.685 59.7739 368.466 58.9363 367.324C58.1748 366.182 57.3372 365.04 56.5758 364.05C55.8143 363.06 55.129 362.146 54.4437 361.385C53.9869 361.385 53.6061 361.461 53.1493 361.461C52.6924 361.461 52.2355 361.461 51.7786 361.461H47.4384V374.862H42.6412V341.054C44.0118 340.749 45.5348 340.521 47.1338 340.369C48.809 340.216 50.3319 340.216 51.7025 340.216C56.4996 340.216 60.1546 341.13 62.7435 342.958C65.2563 344.785 66.5508 347.45 66.5508 351.105C66.5508 353.389 65.9416 355.293 64.7233 356.968C63.505 358.643 61.9059 359.633 59.5454 360.395ZM52.3117 344.328C50.2557 344.328 48.7328 344.404 47.5907 344.48V357.425H51.0172C52.6924 357.425 54.1391 357.349 55.5098 357.197C56.8042 357.044 57.9464 356.74 58.8601 356.283C59.7739 355.826 60.4592 355.141 60.9922 354.303C61.5252 353.466 61.7537 352.323 61.7537 350.953C61.7537 349.658 61.5252 348.592 60.9922 347.755C60.5353 346.917 59.85 346.232 59.0124 345.699C58.1748 345.166 57.185 344.861 56.0428 344.633C54.9006 344.404 53.6061 344.328 52.3117 344.328Z" fill="white"/>
<path d="M105.766 374.786C105.233 373.263 104.7 371.817 104.167 370.37C103.71 368.923 103.177 367.476 102.644 365.953H87.1101L83.9881 374.71H78.9625C80.257 371.055 81.5515 367.705 82.6936 364.659C83.8358 361.537 84.978 358.643 86.1202 355.902C87.2623 353.161 88.3284 350.496 89.3944 347.983C90.4604 345.47 91.6026 342.958 92.8209 340.521H97.2374C98.4557 343.034 99.5979 345.47 100.664 347.983C101.73 350.496 102.872 353.161 103.938 355.902C105.08 358.643 106.146 361.613 107.365 364.659C108.507 367.781 109.725 371.131 111.096 374.71H105.766V374.786ZM101.273 362.07C100.207 359.176 99.141 356.435 98.1511 353.694C97.0851 351.029 96.019 348.44 94.8769 345.927C93.7347 348.44 92.5925 350.953 91.6026 353.694C90.5366 356.359 89.5467 359.176 88.4807 362.07H101.273Z" fill="white"/>
<path d="M146.656 374.786C145.894 373.568 145.133 372.197 144.143 370.674C143.153 369.151 142.163 367.552 141.097 365.953C140.031 364.354 138.889 362.679 137.671 361.004C136.452 359.329 135.31 357.73 134.168 356.131C133.026 354.532 131.884 353.085 130.818 351.714C129.751 350.344 128.685 349.125 127.772 348.059V374.862H123.051V340.597H126.858C128.381 342.272 130.056 344.176 131.807 346.384C133.559 348.592 135.31 350.877 137.061 353.161C138.813 355.522 140.412 357.806 141.935 360.014C143.458 362.222 144.752 364.278 145.818 366.03V340.673H150.539V374.939H146.656V374.786Z" fill="white"/>
<path d="M189.678 374.786C189.145 373.263 188.612 371.817 188.079 370.37C187.622 368.923 187.089 367.476 186.556 365.953H171.022L167.9 374.71H162.875C164.169 371.055 165.463 367.705 166.606 364.659C167.748 361.537 168.89 358.643 170.032 355.902C171.174 353.161 172.24 350.496 173.306 347.983C174.372 345.47 175.515 342.958 176.733 340.521H181.149C182.368 343.034 183.51 345.47 184.576 347.983C185.642 350.496 186.784 353.161 187.85 355.902C188.992 358.643 190.058 361.613 191.277 364.659C192.419 367.781 193.637 371.131 195.008 374.71H189.678V374.786ZM185.109 362.07C184.043 359.176 182.977 356.435 181.987 353.694C180.921 351.029 179.855 348.44 178.713 345.927C177.571 348.44 176.428 350.953 175.438 353.694C174.372 356.359 173.383 359.176 172.317 362.07H185.109Z" fill="white"/>
<path d="M235.212 357.577C235.212 360.547 234.756 363.136 233.842 365.344C232.928 367.552 231.634 369.38 229.958 370.827C228.283 372.273 226.227 373.339 223.943 374.025C221.582 374.71 218.994 375.091 216.252 375.091C214.882 375.091 213.359 375.015 211.684 374.938C210.008 374.786 208.486 374.634 207.191 374.253V340.978C208.562 340.673 210.085 340.445 211.684 340.292C213.359 340.14 214.882 340.14 216.252 340.14C219.07 340.14 221.659 340.521 223.943 341.206C226.303 341.892 228.283 342.958 229.958 344.404C231.634 345.851 232.928 347.679 233.842 349.887C234.756 352.095 235.212 354.608 235.212 357.577ZM216.557 370.903C221.126 370.903 224.476 369.761 226.76 367.4C228.969 365.04 230.111 361.842 230.111 357.654C230.111 353.466 228.969 350.191 226.76 347.907C224.552 345.546 221.126 344.404 216.557 344.404C215.186 344.404 214.12 344.404 213.435 344.48C212.673 344.48 212.14 344.557 211.912 344.557V370.827C212.217 370.827 212.75 370.903 213.435 370.903C214.196 370.827 215.186 370.903 216.557 370.903Z" fill="white"/>
<path d="M271.838 374.786C271.305 373.263 270.772 371.817 270.239 370.37C269.706 368.923 269.249 367.476 268.716 365.953H253.182L250.06 374.71H245.035C246.329 371.055 247.624 367.705 248.766 364.659C249.908 361.537 251.05 358.643 252.193 355.902C253.335 353.161 254.401 350.496 255.467 347.983C256.533 345.47 257.675 342.958 258.893 340.521H263.31C264.528 343.034 265.67 345.47 266.736 347.983C267.802 350.496 268.944 353.161 270.011 355.902C271.153 358.643 272.219 361.613 273.437 364.659C274.579 367.781 275.798 371.131 277.168 374.71H271.838V374.786ZM267.345 362.07C266.279 359.176 265.213 356.435 264.223 353.694C263.157 351.029 262.091 348.44 260.949 345.927C259.807 348.44 258.665 350.953 257.675 353.694C256.609 356.359 255.619 359.176 254.553 362.07H267.345Z" fill="white"/>
<path d="M327.12 349.278C327.12 350.496 326.891 351.638 326.434 352.704C325.977 353.846 325.292 354.912 324.531 355.978C323.769 357.044 322.855 358.11 321.865 359.176C320.876 360.242 319.886 361.232 318.896 362.222C318.363 362.755 317.678 363.441 316.916 364.202C316.155 364.963 315.469 365.725 314.784 366.562C314.099 367.4 313.566 368.162 313.109 368.923C312.652 369.684 312.423 370.37 312.423 370.903H328.186V374.786H307.398C307.398 374.558 307.322 374.405 307.322 374.177C307.322 373.949 307.322 373.796 307.322 373.644C307.322 372.121 307.55 370.674 308.083 369.304C308.616 367.933 309.225 366.715 310.063 365.496C310.901 364.278 311.814 363.212 312.804 362.146C313.794 361.08 314.86 360.09 315.85 359.1C316.688 358.339 317.449 357.501 318.211 356.74C318.972 355.978 319.581 355.217 320.19 354.379C320.799 353.618 321.256 352.78 321.561 351.943C321.942 351.105 322.094 350.267 322.094 349.354C322.094 348.364 321.942 347.526 321.637 346.841C321.332 346.156 320.876 345.546 320.343 345.09C319.81 344.633 319.2 344.252 318.515 344.1C317.83 343.871 317.068 343.795 316.231 343.795C315.241 343.795 314.403 343.947 313.642 344.176C312.88 344.404 312.119 344.709 311.51 345.09C310.901 345.47 310.368 345.775 309.911 346.156C309.454 346.536 309.149 346.841 308.921 346.993L306.636 343.719C306.941 343.414 307.398 342.957 308.007 342.501C308.616 342.044 309.302 341.587 310.139 341.13C310.977 340.673 311.89 340.369 312.88 340.064C313.87 339.759 315.012 339.607 316.231 339.607C319.81 339.607 322.551 340.445 324.302 342.12C326.206 343.871 327.12 346.232 327.12 349.278Z" fill="white"/>
<path d="M341.891 357.577C341.891 351.866 342.881 347.45 344.937 344.328C346.993 341.206 349.811 339.683 353.389 339.683C356.968 339.683 359.786 341.206 361.842 344.328C363.897 347.45 364.887 351.866 364.887 357.577C364.887 363.288 363.897 367.705 361.842 370.827C359.786 373.949 356.968 375.471 353.389 375.471C349.811 375.471 346.993 373.949 344.937 370.827C342.881 367.705 341.891 363.364 341.891 357.577ZM360.014 357.577C360.014 355.674 359.938 353.922 359.709 352.247C359.481 350.572 359.1 349.125 358.643 347.831C358.11 346.612 357.425 345.546 356.587 344.861C355.75 344.1 354.684 343.719 353.389 343.719C352.171 343.719 351.105 344.1 350.191 344.861C349.354 345.623 348.668 346.612 348.135 347.831C347.602 349.049 347.298 350.572 347.069 352.247C346.841 353.922 346.765 355.674 346.765 357.577C346.765 359.481 346.841 361.232 347.069 362.908C347.298 364.583 347.679 366.029 348.135 367.324C348.668 368.542 349.354 369.608 350.191 370.294C351.029 371.055 352.095 371.436 353.389 371.436C354.608 371.436 355.674 371.055 356.587 370.294C357.425 369.532 358.11 368.542 358.643 367.324C359.176 366.106 359.481 364.583 359.709 362.908C359.862 361.308 360.014 359.481 360.014 357.577Z" fill="white"/>
<path d="M379.431 347.526C381.335 346.765 383.162 345.851 384.914 344.709C386.665 343.567 388.34 342.12 389.787 340.445H393.061V374.71H388.492V346.765C388.112 347.146 387.579 347.526 387.046 347.907C386.436 348.288 385.827 348.668 385.142 349.049C384.457 349.43 383.771 349.734 383.01 350.115C382.248 350.42 381.563 350.724 380.878 350.953L379.431 347.526Z" fill="white"/>
<path d="M435.093 354.227C435.093 361.004 433.418 366.182 429.992 369.608C426.641 373.111 421.616 374.862 414.915 374.862L414.763 370.979C416.819 370.979 418.722 370.75 420.397 370.37C422.073 369.989 423.519 369.304 424.814 368.466C426.032 367.629 427.098 366.486 427.936 365.04C428.773 363.669 429.382 361.918 429.763 359.938C428.926 360.319 427.936 360.623 426.87 360.928C425.804 361.156 424.661 361.308 423.519 361.308C421.54 361.308 419.94 361.004 418.57 360.471C417.199 359.862 416.133 359.1 415.219 358.11C414.382 357.12 413.773 355.978 413.392 354.76C413.011 353.466 412.859 352.171 412.859 350.8C412.859 349.582 413.087 348.288 413.468 346.993C413.925 345.699 414.534 344.48 415.448 343.414C416.285 342.348 417.428 341.435 418.798 340.749C420.169 340.064 421.768 339.683 423.595 339.683C425.499 339.683 427.098 339.988 428.545 340.673C429.992 341.358 431.21 342.272 432.124 343.567C433.114 344.785 433.799 346.384 434.332 348.135C434.865 349.963 435.093 351.943 435.093 354.227ZM423.976 357.577C425.118 357.577 426.184 357.501 427.25 357.273C428.24 357.044 429.23 356.74 430.22 356.283C430.22 355.902 430.296 355.598 430.296 355.217C430.296 354.836 430.296 354.532 430.296 354.151C430.296 352.704 430.22 351.333 429.992 350.039C429.763 348.745 429.459 347.602 428.926 346.612C428.393 345.623 427.707 344.861 426.87 344.252C426.032 343.643 424.89 343.414 423.595 343.414C422.529 343.414 421.616 343.643 420.854 344.1C420.093 344.557 419.484 345.166 418.951 345.851C418.418 346.536 418.113 347.374 417.885 348.211C417.656 349.049 417.58 349.887 417.58 350.648C417.58 352.856 418.113 354.608 419.179 355.75C420.245 357.044 421.844 357.577 423.976 357.577Z" fill="white"/>
<path d="M200.338 146.503L184.043 162.798L167.748 146.503L151.529 162.798L135.234 146.503L124.345 157.392C124.345 157.392 130.817 165.387 136.604 170.946C142.239 176.352 151.529 184.5 151.529 184.5L167.824 168.205L184.119 184.5C184.119 184.5 193.409 176.352 199.043 170.946C204.754 165.387 211.303 157.392 211.303 157.392L200.338 146.503Z" fill="white"/>
<path d="M249.147 195.388L232.928 211.683L216.633 195.388L200.338 211.683L184.043 195.388L173.154 206.277C173.154 206.277 179.626 214.272 185.413 219.831C191.048 225.237 200.338 233.385 200.338 233.385L216.633 217.09L232.928 233.385C232.928 233.385 242.218 225.237 247.852 219.831C253.563 214.272 260.112 206.277 260.112 206.277L249.147 195.388Z" fill="white"/>
<path d="M298.184 146.503L281.889 162.798L265.594 146.503L249.299 162.798L233.004 146.503L222.115 157.392C222.115 157.392 228.587 165.387 234.374 170.946C240.009 176.352 249.299 184.5 249.299 184.5L265.594 168.205L281.889 184.5C281.889 184.5 291.179 176.352 296.813 170.946C302.524 165.387 309.073 157.392 309.073 157.392L298.184 146.503Z" fill="white"/>
<path d="M151.453 97.618L135.158 113.913L118.862 97.618L102.567 113.913L86.2724 97.618L75.3836 108.507C75.3836 108.507 81.8559 116.502 87.643 122.061C93.2777 127.467 102.567 135.614 102.567 135.614L118.862 119.319L135.158 135.614C135.158 135.614 144.447 127.467 150.082 122.061C155.793 116.502 162.341 108.507 162.341 108.507L151.453 97.618Z" fill="white"/>
<path d="M249.223 97.618L233.004 113.913L216.709 97.618L200.414 113.913L184.119 97.618L173.23 108.507C173.23 108.507 179.702 116.502 185.489 122.061C191.124 127.467 200.414 135.614 200.414 135.614L216.709 119.319L233.004 135.614C233.004 135.614 242.294 127.467 247.928 122.061C253.639 116.502 260.188 108.507 260.188 108.507L249.223 97.618Z" fill="white"/>
<path d="M346.993 97.4657L330.698 113.761L314.479 97.4657L298.184 113.761L281.889 97.4657L271 108.354C271 108.354 277.473 116.35 283.26 121.908C288.894 127.315 298.184 135.462 298.184 135.462L314.479 119.167L330.774 135.462C330.774 135.462 340.064 127.315 345.699 121.908C351.41 116.35 357.958 108.354 357.958 108.354L346.993 97.4657Z" fill="white"/>
<path d="M200.262 48.809L183.966 65.1041L167.671 48.809L151.376 65.1041L135.081 48.809L124.193 59.6978C124.193 59.6978 130.665 67.693 136.452 73.2516C142.087 78.6579 151.376 86.8054 151.376 86.8054L167.671 70.5104L183.966 86.8054C183.966 86.8054 193.256 78.6579 198.891 73.2516C204.602 67.693 211.15 59.6978 211.15 59.6978L200.262 48.809Z" fill="white"/>
<path d="M298.108 48.809L281.813 65.1041L265.518 48.809L249.223 65.1041L233.004 48.809L222.115 59.6978C222.115 59.6978 228.587 67.693 234.374 73.2516C240.009 78.6579 249.299 86.8054 249.299 86.8054L265.594 70.5104L281.889 86.8054C281.889 86.8054 291.179 78.6579 296.813 73.2516C302.524 67.693 309.073 59.6978 309.073 59.6978L298.108 48.809Z" fill="white"/>
<path d="M249.223 0L233.004 16.2951L216.709 0L200.414 16.2951L184.119 0L173.23 10.8888C173.23 10.8888 179.702 18.884 185.489 24.4426C191.124 29.8489 200.414 37.9964 200.414 37.9964L216.709 21.7014L233.004 37.9964C233.004 37.9964 242.294 29.8489 247.928 24.4426C253.639 18.884 260.188 10.8888 260.188 10.8888L249.223 0Z" fill="white"/>
</svg>
