<?xml version="1.0" encoding="utf-8"?>
<!-- Generator: Adobe Illustrator 20.1.0, SVG Export Plug-In . SVG Version: 6.00 Build 0)  -->
<svg version="1.0" xmlns="http://www.w3.org/2000/svg" xmlns:xlink="http://www.w3.org/1999/xlink" x="0px" y="0px"
	 viewBox="0 0 286.2 58.1" style="enable-background:new 0 0 286.2 58.1;" xml:space="preserve">
<style type="text/css">
	.st0{display:none;fill:#FEFEFE;}
	.st1{fill-rule:evenodd;clip-rule:evenodd;fill:#FFFFFF;}
	.st2{fill:#FFFFFF;}
</style>
<g id="Layer_1">
	<path class="st0" d="M91.9-215.3"/>
	<g>
		<path class="st1" d="M63,10.9c-4.3-7.2-14.1-3.1-12,5.2C53.8,27.3,67.4,30,72.4,40c2.8,5.5,1,10.9-3.2,13.3
			c-4.3,2.5-11.6,3.4-16.1,0.1c-2.2-1.7-2.1-2.9-3.2,0.2c-0.4,1-1,2.1-2.3,1c-1.9-1.7-1.9-6.9,1.4-9.1c2.1-1.1,3.5-0.5,5.4,1.4
			c4.7,3.9,10.7,2.7,12.2-0.5c1-2.1,0-5.3-2-7.5c-2.9-3.2-7.4-6-11.2-10.4c-4.9-5.8-8.7-12.2-6.3-18.6c2.1-5.5,8.3-10.7,15.6-7
			c4.3,2.2,8.5,7.1,6.1,12.1c-1.7,3.4-6.8,4.5-9.2,1C58.3,13.9,64.2,12.9,63,10.9L63,10.9z"/>
		<path class="st1" d="M82,22.5c0.2,6.1-6.8,5.7-7-0.2c-0.1-2.7,2.1-3.4,3.5-3.3c0.6,0,1.5,0.4,2.2,1C81.4,20.6,81.9,21.5,82,22.5
			L82,22.5z"/>
		<path class="st1" d="M75.5,36.3c-0.1,0.1-0.2,0.1-0.3,0.2c-3,1.7-2.1-1.7-0.5-3.7c1.6-2,3-2.8,4.2-2.6c1.1,0.2,2,0.8,2.2,1.8
			c0.8,3.9-3.6,14.8,1.1,17.7c0.9,0.6,2,0.4,2.7-0.4c0.9-1,1-2.7,2.1-3c0.5-0.1,0.9,0.1,1.1,1.4c0.3,3.9-1.4,9.5-6.8,7.6
			c-4.8-2.2-4.6-11.3-4.5-16.3C76.7,38.6,76.6,35.6,75.5,36.3L75.5,36.3z"/>
		<path class="st2" d="M110,29.5c-0.4-1-1.2-1.7-2.3-1.6c-2.6,0.2-3.1,0.1-5.6,0.3c-2.5,0.1-4.5,0.3-6.3,0.3c0.3-3,0.7-6,1-9
			c0.9-8.7,1-14.1,0.1-16.1c-0.7-1.5-1.7-2.1-3.1-1.8c-2.2,0.4-2.8,4.3-3,11.5c-0.1,4.1,0.2,9.3,0.8,16.1c-0.5,0.1-2.2,0.6-3.2,0.9
			c-1.1,0.3-1.9,0.7-2.6,1c-0.4,0.2-0.5,0.6-0.5,1.1c0,0.6,0.2,1.3,0.5,2c0.9,2,2.2,5.1,4,9.2c1.8,4.1,3,6.9,3.7,8.4
			c1.1,2.6,2.5,3.8,4.3,3.7c1.4-0.1,2.2-0.2,2.5-0.6c0.3-0.3,0.1-1.2-0.4-2.5c-1.5-3.6-2.6-7.2-3.1-10.7c-0.3-1.8-0.4-5.3-0.4-8.4
			c5.5-1.3,9.2-0.9,12.4-1.8l0.2-0.1c1.2-0.8,0.5-0.4,1-0.8C110.1,30.3,110.2,30,110,29.5z M93.5,46.5l-0.2,0.2l-0.3,0
			c0,0-0.1-0.2-0.4-0.9c-0.3-0.7-1.6-5.1-1.6-5.1c-0.1-0.1-1.1-4.1-1.3-4.5c-0.1-0.4,0-0.7,0-0.7s0.1-0.3,0.4-0.6
			c0.3-0.3,1.3-0.6,1.3-0.6l0.2,0l0.2,0.3l0.1,0.9l0.3,2.1l1,6.2l0.3,2.3L93.5,46.5z"/>
		<path class="st1" d="M129.1,48.7c-3.4,4.2-8.2,8.1-13.5,6.6c-3.1-1.1-5.1-4.1-6.1-7.8c-0.9-3.4-1-7.5-0.2-11
			c1.2-5.6,4.6-10.2,8.5-10.2c7.4,0.7,11.2,8.9,7.4,14.7c-2.1,3.2-6.5,4.8-8.6,5.9c-0.8,0.4-1.4,0.6-1.3,2.1
			c0.3,3.7,6.6,3.7,10.6-4.6c0.4-0.8,2.9-4,4.5-3.1C133.8,43.3,129.5,48.1,129.1,48.7L129.1,48.7z M113.6,43.5
			c4.4-1.4,8.1-5.3,8.4-7.4c0.6-4-5.5-7.4-7.7-0.9C113.7,36.9,113.5,40.6,113.6,43.5L113.6,43.5z"/>
		<path class="st1" d="M158.9,34.1c-0.3,3.3,4.7,20.6,1.1,20.9c-2.1,0.2-3.5,0.4-4-0.8c-0.5-1.1,1.6-10-0.2-7.3
			c-0.4,0.6-0.3,0.7-1,1.8c-5.9,10.6-14,7.8-18.7-0.8c-2.8-5.2-4.4-12.5-3.6-20.2c1.3-12.3,6.6-28.5,19-25.9
			c9.8,2.1,3,15.2-0.4,11.8C143.1-4.1,127,38.7,144.8,49c5.2,3,9.6-6.7,8.5-11c-0.7-3-0.9-3.1-2.4-2.7c-1.2,0.3-5.1,3.8-6.3,2.7
			c-1.4-1.3-2.1-6.4,0.6-6.5c3.2-0.2,5.1,0.9,8.9-3.7c3.5-4.2,6.3-2.9,5.7,1.6C159.6,31.4,159,32.5,158.9,34.1L158.9,34.1z"/>
		<path class="st1" d="M181.8,27.7c-2-1.6-6.3-3.4-10.2-3c-5.4,0.6-10.5,4.2-9.9,9.9c0.2,2.4,0.5,12.8,1.4,17.1
			c0.3,1.5,1.2,2.8,2.6,3.2c1.4,0.4,3.1,0,3.7-1.6c0.9-2.1-0.1-4-0.6-5.8c-1-3.6-1.5-8.6-1.8-11.7c-0.6-6.4,9.1-7.2,11.3-3.5
			c-1.6,2.5,0.7,4.1,3.7,1.8C184.8,32.1,183.7,29.2,181.8,27.7L181.8,27.7z"/>
		<path class="st1" d="M195,55.5c13.4-2.3,18.5-23,1.9-30.1C179.7,19.8,178.8,58.9,195,55.5L195,55.5z M189,38.8
			c1.6-16.3,12.3-8.7,13.7,1.9C204,51.2,186.7,57.5,189,38.8L189,38.8z"/>
		<path class="st1" d="M214.3,34.2c-2.1,4.6-1.3,23.2,8.3,14.4c2.1-1.9,2.4-8.1,1.6-13.4c-0.2-1.2-1.2-4.9-1.6-6
			c-0.4-1.4,0.7-3.4,2.5-4c1.5-0.5,3.1,0.4,3.7,1.8c1,2.4,0.3,6.3,0.2,7.9c-0.3,4.8-1.1,10.6,0.6,13.7c0.7,1.3,1.7,1.5,1.8,2.4
			c0.1,3.5-4.1,5.8-5.6,3.6c-0.4-0.6-0.1-1.5-0.7-2c-7.9,7.1-16.6,1.5-16.4-8.6c0-2.2-0.3-5.8,0.5-9c0.6-2.4,1-4.8,2.3-6.1
			c1.7-1.2,2.5-0.5,3.1-0.1C215.8,29.7,214.9,32.5,214.3,34.2L214.3,34.2z"/>
		<path class="st1" d="M249.6,50c1.4-4.8,3.1-12.6,2-15.5C250,30.2,244,28.6,241,33c-1.8,2.7-1.9,12.4,0.4,18.1
			c0.6,1.4-0.5,3.3-2.2,3.8c-6.6,2.2-1.5-16.1-5.3-22c-0.8-1.3-1.8-1.4-2-2.3c-0.4-3.4,3.6-5.5,5.4-3.4c0.5,0.6,0.2,1.5,0.9,1.9
			c7.3-6.8,18.2-1.7,18.9,8c0.2,3.3-0.7,10.3-2.6,14.8c-0.5,1.3-1.1,2.3-1.8,3c-1.6,1.2-2.5,0.5-3.1,0.1
			C248.5,54.2,249.1,51.6,249.6,50L249.6,50z"/>
		<path class="st1" d="M278.7,28.7c0.6-5.2-1.6-20.5-5.6-20.9c-1.1-0.1-1.3-2.7-0.6-4.3c0.7-1.6,2.5-2.1,5.4-0.9
			c4.6,1.9,5,19.4,5.1,24.6c0.1,5.1-0.2,11.3,0.6,16.1c0.3,1.8,0.8,3.3,1.3,4.4c0.8,1.9,1.7,3.2,1.1,4.3c-1.2,2.4-4.8,3.3-6,2.1
			c-0.8-0.8-1.2-2.3-1.4-4c-6.9,11-18,2.4-19.5-8.3C257.6,31.8,266.9,19.9,278.7,28.7L278.7,28.7z M267.8,49.1
			c8.7,6.3,11.5-10,7.1-16.1C269.6,25.5,256.1,40,267.8,49.1L267.8,49.1z"/>
		<path class="st1" d="M13.2,45.3C6.4,43.1,1.5,36.5,0.4,29.6C-2.9,10.4,17.4-6.9,37.8,2.7C38,7,36,13.2,30.5,15
			C57.8,32.2,34.5,67.3,6,55.8c-5.2-2.7-2.4-7.5,3.1-4.7c6.2,2.1,14.3,2.1,19.4-0.7c3.3-1.8,6.2-4.2,8.3-7.4c0.6-0.9,1.4-2.2,2-3.6
			c0.4-1,1.8-5.2,0.7-5.7c-0.3-0.1-0.4,0.2-0.5,0.5c-0.7,2.8-2,5.2-3.9,7.4c-2.2,2.5-4.9,4.5-8.4,5.7c-4.1,1.5-8.8,1.7-15.3,0.3
			C11.9,47.2,12.7,45.9,13.2,45.3L13.2,45.3z M32,4.5c0,0,0.1,0.8,0.2,1.9c0.1,3.2-0.8,5.2-3,7.5c-0.5,0.5-1,0.9-1.6,1.4
			c7.7,4.8,11.7,15.2,7.2,22.5c-6,9.8-17.9,7.6-24.5,0.9c-6.8-7.1-5.9-16.2-1-22.9C14.4,8.7,23.7,4.2,32,4.5L32,4.5z"/>
		<path class="st1" d="M8.8,26c1.5-14.6,18.3-17.5,24.5,2C38.4,48,6.5,43.7,8.8,26L8.8,26z M22.5,35.6c13.3,0.5,6.9-13.1-1.8-16.1
			C12.1,16.6,7.3,35.6,22.5,35.6L22.5,35.6z"/>
	</g>
</g>
<g id="Layer_2">
</g>
</svg>
