<?xml version="1.0" encoding="UTF-8"?>
<svg width="400px" height="400px" viewBox="0 0 400 400" version="1.1" xmlns="http://www.w3.org/2000/svg" xmlns:xlink="http://www.w3.org/1999/xlink">
    <!-- Generator: Sketch 50.2 (55047) - http://www.bohemiancoding.com/sketch -->
    <title>wcgranada_twitter_avatar</title>
    <desc>Created with Sketch.</desc>
    <defs></defs>
    <g id="wcgranada_twitter_avatar" stroke="none" stroke-width="1" fill="none" fill-rule="evenodd">
        <g id="Group" transform="translate(29.000000, 59.000000)">
            <polygon id="Fill-7241" fill="#155830" points="60 72.1432417 73.124832 59 92.812416 78.7141896 112.5 59 132.186912 78.7141896 151.874496 59 165 72.1432417 132.186912 105 112.5 85.2858104 92.812416 105"></polygon>
            <polygon id="Fill-7242" fill="#155830" points="119 250.142761 132.124916 237 151.812626 256.714478 171.500336 237 191.187374 256.714478 210.875084 237 224 250.142761 191.187374 283 171.500336 263.285522 151.812626 283"></polygon>
            <polygon id="Fill-7243" fill="#301A1F" points="119 13.1432417 132.124916 0 151.812626 19.7141896 171.500336 0 191.187374 19.7141896 210.875084 0 224 13.1432417 191.187374 46 171.500336 26.2858104 151.812626 46"></polygon>
            <polygon id="Fill-7244" fill="#301A1F" points="119 131.142761 132.124832 118 151.812416 137.714478 171.5 118 191.186912 137.714478 210.874496 118 224 131.142761 191.186912 164 171.5 144.285522 151.812416 164"></polygon>
            <polygon id="Fill-7245" fill="#812123" points="237 131.143242 250.124832 118 269.812416 137.71419 289.5 118 309.186912 137.71419 328.874496 118 342 131.143242 309.186912 164 289.5 144.28581 269.812416 164"></polygon>
            <polygon id="Fill-7246" fill="#812123" points="60 190.143242 73.124832 177 92.812416 196.71419 112.5 177 132.186912 196.71419 151.874496 177 165 190.143242 132.186912 223 112.5 203.28581 92.812416 223"></polygon>
            <polygon id="Fill-7247" fill="#29446C" points="178 190.143242 191.125504 177 210.813088 196.71419 230.500672 177 250.187584 196.71419 269.875168 177 283 190.143242 250.187584 223 230.500672 203.28581 210.812416 223"></polygon>
            <polygon id="Fill-7248" fill="#CF692D" points="0 131.143242 13.124832 118 32.812416 137.71419 52.5 118 72.1869119 137.71419 91.8744959 118 105 131.143242 72.1869119 164 52.5 144.28581 32.812416 164"></polygon>
            <polygon id="Fill-7249" fill="#CF692D" points="178 72.1432417 191.125504 59 210.813088 78.7141896 230.500672 59 250.187584 78.7141896 269.875168 59 283 72.1432417 250.187584 105 230.500672 85.2858104 210.812416 105"></polygon>
        </g>
    </g>
</svg>