<?xml version="1.0" encoding="utf-8"?>
<!-- Generator: Adobe Illustrator 21.0.2, SVG Export Plug-In . SVG Version: 6.00 Build 0)  -->
<svg version="1.1" id="Layer_1" xmlns="http://www.w3.org/2000/svg" xmlns:xlink="http://www.w3.org/1999/xlink" x="0px" y="0px"
	 viewBox="0 0 301.3 65.8" style="enable-background:new 0 0 301.3 65.8;" xml:space="preserve">
<style type="text/css">
	.st0{display:none;fill:#FDFDFE;}
	.st1{fill:#99AE69;}
	.st2{fill:#D8EAC1;}
</style>
<path class="st0" d="M99.9-212.7"/>
<path d="M71,13.5c-4.3-7.2-14.1-3.1-12,5.2C61.8,30,75.4,32.6,80.4,42.6c2.8,5.5,1,10.9-3.2,13.3c-4.3,2.5-11.6,3.4-16.1,0.1
	c-2.2-1.7-2.1-2.9-3.2,0.2c-0.4,1-1,2.1-2.3,1c-1.9-1.7-1.9-6.9,1.4-9.1c2.1-1.1,3.5-0.5,5.4,1.4c4.7,3.9,10.7,2.7,12.2-0.5
	c1-2.1,0-5.3-2-7.5c-2.9-3.2-7.4-6-11.2-10.4c-4.9-5.8-8.7-12.2-6.3-18.6c2.1-5.5,8.3-10.7,15.6-7c4.3,2.2,8.5,7.1,6.1,12.1
	c-1.7,3.4-6.8,4.5-9.2,1C66.3,16.5,72.2,15.5,71,13.5L71,13.5z"/>
<path d="M90,25.2c0.2,6.1-6.8,5.7-7-0.2c-0.1-2.7,2.1-3.4,3.5-3.3c0.6,0,1.5,0.4,2.2,1C89.4,23.3,89.9,24.1,90,25.2L90,25.2z"/>
<path d="M83.5,38.9c-0.1,0.1-0.2,0.1-0.3,0.2c-3,1.7-2.1-1.7-0.5-3.7c1.6-2,3-2.8,4.2-2.6c1.1,0.2,2,0.8,2.2,1.8
	c0.8,3.9-3.6,14.8,1.1,17.7c0.9,0.6,2,0.4,2.7-0.4c0.9-1,1-2.7,2.1-3c0.5-0.1,0.9,0.1,1.1,1.4c0.3,3.9-1.4,9.5-6.8,7.6
	c-4.8-2.2-4.6-11.3-4.5-16.3C84.7,41.2,84.6,38.2,83.5,38.9L83.5,38.9z"/>
<path d="M118,32.2c-0.4-1-1.2-1.7-2.3-1.6c-2.6,0.2-3.1,0.1-5.6,0.2c-2.5,0.1-4.6,0.2-6.3,0.3c0.3-3,0.7-6,1-9
	c0.9-8.7,1-14.1,0.1-16.1c-0.7-1.5-1.7-2.1-3.1-1.8c-2.2,0.4-2.8,4.3-3,11.5c-0.1,4.1,0.2,9.3,0.8,16.1c-0.5,0.1-2.2,0.6-3.2,0.9
	c-1.1,0.3-1.9,0.7-2.6,1c-0.4,0.2-0.5,0.6-0.5,1.1c0,0.6,0.2,1.3,0.5,2c0.9,2,2.2,5.1,4,9.2c1.8,4.1,3,6.9,3.7,8.4
	c1.1,2.6,2.5,3.8,4.3,3.7c1.4-0.1,2.2-0.2,2.5-0.6c0.3-0.3,0.1-1.2-0.4-2.5c-1.5-3.6-2.6-7.2-3.1-10.7c-0.3-1.8-0.4-5.3-0.4-8.4
	c5.5-1.3,9.2-0.9,12.4-1.8l0.2-0.1c1.2-0.8,0.5-0.4,1-0.8C118.1,33,118.2,32.7,118,32.2z M101.5,49.2l-0.2,0.2l-0.3,0
	c0,0-0.1-0.2-0.4-0.9c-0.3-0.7-1.6-5.1-1.6-5.1c-0.1-0.1-1.1-4.1-1.3-4.5c-0.1-0.4,0-0.7,0-0.7s0.1-0.3,0.4-0.6
	c0.3-0.2,1.3-0.6,1.3-0.6l0.2,0l0.2,0.3l0.1,0.9l0.3,2.1l1,6.2l0.3,2.3L101.5,49.2z"/>
<path d="M137.1,51.3c-3.4,4.2-8.2,8.1-13.5,6.6c-3.1-1.1-5.1-4.1-6.1-7.8c-0.9-3.4-1-7.5-0.2-11c1.2-5.6,4.6-10.2,8.5-10.2
	c7.4,0.7,11.2,8.9,7.4,14.7c-2.1,3.2-6.4,4.8-8.6,5.9c-0.8,0.4-1.4,0.6-1.3,2.1c0.3,3.7,6.6,3.7,10.6-4.6c0.4-0.8,2.9-4,4.5-3.1
	C141.8,46,137.5,50.8,137.1,51.3L137.1,51.3z M121.6,46.2c4.4-1.4,8.1-5.3,8.4-7.4c0.6-4-5.5-7.4-7.7-0.9
	C121.7,39.6,121.5,43.2,121.6,46.2L121.6,46.2z"/>
<path d="M166.9,36.7c-0.3,3.3,4.7,20.6,1.1,20.9c-2.1,0.2-3.5,0.4-4-0.8c-0.5-1.1,1.6-10-0.2-7.3c-0.4,0.6-0.3,0.7-1,1.8
	c-5.9,10.6-14,7.8-18.7-0.8c-2.8-5.2-4.4-12.5-3.6-20.2c1.3-12.3,6.6-28.5,19-25.9c9.8,2.1,3,15.2-0.4,11.8
	c-8.1-17.7-24.2,25.1-6.4,35.4c5.2,3,9.6-6.7,8.5-11c-0.7-3-0.9-3.1-2.4-2.7c-1.2,0.3-5.1,3.8-6.3,2.7c-1.4-1.3-2.1-6.4,0.6-6.5
	c3.2-0.2,5.1,0.9,8.9-3.7c3.5-4.2,6.3-2.9,5.7,1.6C167.6,34,167.1,35.2,166.9,36.7L166.9,36.7z"/>
<path d="M189.8,30.4c-2-1.6-6.3-3.4-10.2-3c-5.4,0.6-10.5,4.2-9.9,9.9c0.2,2.4,0.5,12.8,1.4,17.1c0.3,1.5,1.2,2.8,2.6,3.2
	c1.4,0.4,3.1,0,3.7-1.6c0.9-2.1-0.1-4-0.6-5.8c-1-3.6-1.5-8.6-1.8-11.7c-0.6-6.4,9.1-7.2,11.3-3.5c-1.6,2.5,0.7,4.1,3.7,1.8
	C192.8,34.8,191.7,31.8,189.8,30.4L189.8,30.4z"/>
<path d="M203,58.2c13.4-2.3,18.5-23,1.9-30.1C187.7,22.5,186.8,61.6,203,58.2L203,58.2z M197,41.4c1.6-16.3,12.3-8.7,13.7,1.9
	C212,53.9,194.7,60.2,197,41.4L197,41.4z"/>
<path d="M222.3,36.8c-2.1,4.6-1.3,23.2,8.3,14.4c2.1-1.9,2.4-8.1,1.6-13.4c-0.2-1.2-1.2-4.9-1.6-6c-0.4-1.4,0.7-3.4,2.5-4
	c1.5-0.5,3.1,0.4,3.7,1.8c1,2.4,0.3,6.3,0.2,7.9c-0.3,4.8-1.1,10.6,0.6,13.7c0.7,1.3,1.7,1.5,1.8,2.4c0.1,3.5-4.1,5.8-5.6,3.6
	c-0.4-0.6-0.1-1.5-0.7-2c-7.9,7.1-16.6,1.5-16.4-8.6c0-2.2-0.3-5.8,0.5-9c0.6-2.4,1-4.8,2.3-6.1c1.7-1.2,2.5-0.5,3.1-0.1
	C223.8,32.4,222.9,35.2,222.3,36.8L222.3,36.8z"/>
<path d="M257.6,52.7c1.4-4.8,3.1-12.6,2-15.5c-1.6-4.3-7.6-5.9-10.5-1.5c-1.8,2.7-1.9,12.4,0.4,18.1c0.6,1.4-0.5,3.3-2.2,3.8
	c-6.6,2.2-1.5-16.1-5.3-22c-0.8-1.3-1.8-1.4-2-2.3c-0.4-3.4,3.6-5.5,5.4-3.4c0.5,0.6,0.2,1.5,0.9,1.9c7.3-6.8,18.2-1.7,18.9,8
	c0.2,3.3-0.7,10.3-2.6,14.8c-0.5,1.3-1.1,2.3-1.8,3c-1.6,1.2-2.5,0.5-3.1,0.1C256.5,56.9,257.1,54.2,257.6,52.7L257.6,52.7z"/>
<path d="M286.7,31.4c0.6-5.2-1.6-20.5-5.6-20.9c-1.1-0.1-1.3-2.7-0.6-4.3c0.7-1.6,2.5-2.1,5.4-0.9c4.6,1.9,5,19.4,5.1,24.6
	c0.1,5.1-0.2,11.3,0.6,16.1c0.3,1.8,0.8,3.3,1.3,4.4c0.8,1.9,1.7,3.2,1.1,4.3c-1.2,2.3-4.8,3.3-6,2.1c-0.8-0.8-1.2-2.3-1.4-4
	c-6.9,11-18,2.4-19.5-8.3C265.6,34.5,274.9,22.6,286.7,31.4L286.7,31.4z M275.8,51.7c8.7,6.3,11.5-10,7.1-16.1
	C277.6,28.2,264.1,42.6,275.8,51.7L275.8,51.7z"/>
<path class="st1" d="M38.6,17.6c5.5-1.8,7.5-8,7.2-12.3C25.4-4.2,5.1,13.1,8.4,32.2c1.2,6.9,6.1,13.6,12.9,15.8
	c-0.5,0.5-1.4,1.8-1.8,2.3c6.5,1.4,11.2,1.2,15.3-0.3c3.5-1.3,6.2-3.2,8.4-5.7c1.9-2.2,3.2-4.6,3.9-7.4c0.1-0.3,0.2-0.6,0.5-0.5
	c1.1,0.5-0.3,4.6-0.7,5.7c-0.6,1.4-1.4,2.8-2,3.6c-2.1,3.1-5,5.6-8.3,7.4c-5.1,2.8-13.2,2.8-19.4,0.7c-5.6-2.8-8.3,2-3.1,4.7
	C42.5,70,65.8,34.8,38.6,17.6z M42.9,40.4c-6,9.8-17.9,7.6-24.5,0.9c-6.8-7.1-5.9-16.2-1-22.9c5.1-7,14.3-11.5,22.6-11.2
	c0,0,0.1,0.8,0.2,1.9c0.1,3.2-0.8,5.2-3,7.5c-0.5,0.5-1,0.9-1.6,1.4C43.3,22.7,47.3,33.1,42.9,40.4z"/>
<path d="M16.9,28.7c1.5-14.6,18.3-17.5,24.5,2C46.4,50.7,14.5,46.3,16.9,28.7L16.9,28.7z M30.5,38.3c13.3,0.5,6.9-13.1-1.8-16.1
	C20.1,19.2,15.3,38.3,30.5,38.3L30.5,38.3z"/>
<path class="st2" d="M30.5,38.3c13.3,0.5,6.9-13.1-1.8-16.1C20.1,19.2,15.3,38.3,30.5,38.3L30.5,38.3z"/>
<g id="Layer_2">
</g>
</svg>
